<mxfile host="app.diagrams.net" modified="2021-04-07T08:45:32.831Z" agent="5.0 (Windows NT 10.0; Win64; x64) AppleWebKit/537.36 (KHTML, like Gecko) Chrome/89.0.4389.114 Safari/537.36 Edg/89.0.774.68" etag="MNQkrV-MrPB78E1E1Bab" version="14.5.8" type="github">
  <diagram id="C5RBs43oDa-KdzZeNtuy" name="Page-1">
    <mxGraphModel dx="1992" dy="1814" grid="1" gridSize="10" guides="1" tooltips="1" connect="1" arrows="1" fold="1" page="1" pageScale="1" pageWidth="827" pageHeight="1169" math="0" shadow="0">
      <root>
        <mxCell id="WIyWlLk6GJQsqaUBKTNV-0" />
        <mxCell id="WIyWlLk6GJQsqaUBKTNV-1" parent="WIyWlLk6GJQsqaUBKTNV-0" />
        <mxCell id="mS8Wi9VP1vNNWBXcDTI1-18" style="edgeStyle=orthogonalEdgeStyle;rounded=1;orthogonalLoop=1;jettySize=auto;html=1;entryX=0;entryY=0.5;entryDx=0;entryDy=0;sketch=1;shadow=1;strokeWidth=3;" parent="WIyWlLk6GJQsqaUBKTNV-1" source="mS8Wi9VP1vNNWBXcDTI1-2" target="mS8Wi9VP1vNNWBXcDTI1-17" edge="1">
          <mxGeometry relative="1" as="geometry" />
        </mxCell>
        <mxCell id="mS8Wi9VP1vNNWBXcDTI1-19" value="&lt;font style=&quot;font-size: 16px&quot;&gt;酒席订单信息&lt;/font&gt;" style="edgeLabel;html=1;align=center;verticalAlign=middle;resizable=0;points=[];" parent="mS8Wi9VP1vNNWBXcDTI1-18" vertex="1" connectable="0">
          <mxGeometry x="-0.26" y="-1" relative="1" as="geometry">
            <mxPoint x="11" y="-1" as="offset" />
          </mxGeometry>
        </mxCell>
        <mxCell id="mS8Wi9VP1vNNWBXcDTI1-2" value="&lt;p&gt;&lt;span style=&quot;font-size: 18px ; font-family: &amp;#34;comic sans ms&amp;#34;&quot;&gt;客户&lt;/span&gt;&lt;br&gt;&lt;/p&gt;" style="html=1;dashed=0;whitespace=wrap;shape=mxgraph.dfd.externalEntity;sketch=1;shadow=1;" parent="WIyWlLk6GJQsqaUBKTNV-1" vertex="1">
          <mxGeometry x="-60" y="40" width="100" height="100" as="geometry" />
        </mxCell>
        <mxCell id="mS8Wi9VP1vNNWBXcDTI1-3" value="1" style="autosize=1;part=1;resizable=0;strokeColor=inherit;fillColor=inherit;gradientColor=inherit;" parent="mS8Wi9VP1vNNWBXcDTI1-2" vertex="1">
          <mxGeometry width="20" height="20" relative="1" as="geometry">
            <mxPoint x="15" y="15" as="offset" />
          </mxGeometry>
        </mxCell>
        <mxCell id="mS8Wi9VP1vNNWBXcDTI1-56" style="edgeStyle=orthogonalEdgeStyle;sketch=1;orthogonalLoop=1;jettySize=auto;html=1;entryX=0;entryY=0.5;entryDx=0;entryDy=0;shadow=1;strokeWidth=3;exitX=0.566;exitY=0.006;exitDx=0;exitDy=0;exitPerimeter=0;" parent="WIyWlLk6GJQsqaUBKTNV-1" source="mS8Wi9VP1vNNWBXcDTI1-4" target="mS8Wi9VP1vNNWBXcDTI1-55" edge="1">
          <mxGeometry relative="1" as="geometry" />
        </mxCell>
        <mxCell id="mS8Wi9VP1vNNWBXcDTI1-57" value="&lt;font style=&quot;font-size: 16px&quot;&gt;补货信息&lt;/font&gt;" style="edgeLabel;html=1;align=center;verticalAlign=middle;resizable=0;points=[];" parent="mS8Wi9VP1vNNWBXcDTI1-56" vertex="1" connectable="0">
          <mxGeometry x="-0.0136" y="3" relative="1" as="geometry">
            <mxPoint as="offset" />
          </mxGeometry>
        </mxCell>
        <mxCell id="mS8Wi9VP1vNNWBXcDTI1-4" value="&lt;font style=&quot;font-size: 18px&quot;&gt;&lt;br&gt;库存&lt;br&gt;负责人&lt;/font&gt;" style="html=1;dashed=0;whitespace=wrap;shape=mxgraph.dfd.externalEntity;sketch=1;shadow=1;" parent="WIyWlLk6GJQsqaUBKTNV-1" vertex="1">
          <mxGeometry y="-205" width="100" height="100" as="geometry" />
        </mxCell>
        <mxCell id="mS8Wi9VP1vNNWBXcDTI1-5" value="3" style="autosize=1;part=1;resizable=0;strokeColor=inherit;fillColor=inherit;gradientColor=inherit;" parent="mS8Wi9VP1vNNWBXcDTI1-4" vertex="1">
          <mxGeometry width="20" height="20" relative="1" as="geometry">
            <mxPoint x="15" y="15" as="offset" />
          </mxGeometry>
        </mxCell>
        <mxCell id="mS8Wi9VP1vNNWBXcDTI1-6" value="&lt;font style=&quot;font-size: 18px&quot;&gt;&lt;br&gt;采购&lt;br&gt;负责人&lt;/font&gt;" style="html=1;dashed=0;whitespace=wrap;shape=mxgraph.dfd.externalEntity;sketch=1;shadow=1;" parent="WIyWlLk6GJQsqaUBKTNV-1" vertex="1">
          <mxGeometry x="480" y="-375" width="100" height="100" as="geometry" />
        </mxCell>
        <mxCell id="mS8Wi9VP1vNNWBXcDTI1-7" value="4" style="autosize=1;part=1;resizable=0;strokeColor=inherit;fillColor=inherit;gradientColor=inherit;" parent="mS8Wi9VP1vNNWBXcDTI1-6" vertex="1">
          <mxGeometry width="20" height="20" relative="1" as="geometry">
            <mxPoint x="15" y="15" as="offset" />
          </mxGeometry>
        </mxCell>
        <mxCell id="mS8Wi9VP1vNNWBXcDTI1-8" value="&lt;font style=&quot;font-size: 18px&quot;&gt;&lt;br&gt;&amp;nbsp; 食物加工&lt;br&gt;&amp;nbsp; 部门&lt;/font&gt;" style="html=1;dashed=0;whitespace=wrap;shape=mxgraph.dfd.externalEntity;sketch=1;shadow=1;" parent="WIyWlLk6GJQsqaUBKTNV-1" vertex="1">
          <mxGeometry x="780" y="-300" width="100" height="100" as="geometry" />
        </mxCell>
        <mxCell id="mS8Wi9VP1vNNWBXcDTI1-9" value="5" style="autosize=1;part=1;resizable=0;strokeColor=inherit;fillColor=inherit;gradientColor=inherit;" parent="mS8Wi9VP1vNNWBXcDTI1-8" vertex="1">
          <mxGeometry width="20" height="20" relative="1" as="geometry">
            <mxPoint x="15" y="15" as="offset" />
          </mxGeometry>
        </mxCell>
        <mxCell id="mS8Wi9VP1vNNWBXcDTI1-10" value="&lt;font style=&quot;font-size: 18px&quot;&gt;财务&lt;/font&gt;" style="html=1;dashed=0;whitespace=wrap;shape=mxgraph.dfd.externalEntity;fontSize=14;shadow=1;sketch=1;" parent="WIyWlLk6GJQsqaUBKTNV-1" vertex="1">
          <mxGeometry x="780" y="560" width="100" height="100" as="geometry" />
        </mxCell>
        <mxCell id="mS8Wi9VP1vNNWBXcDTI1-11" value="6" style="autosize=1;part=1;resizable=0;strokeColor=inherit;fillColor=inherit;gradientColor=inherit;" parent="mS8Wi9VP1vNNWBXcDTI1-10" vertex="1">
          <mxGeometry width="20" height="20" relative="1" as="geometry">
            <mxPoint x="15" y="15" as="offset" />
          </mxGeometry>
        </mxCell>
        <mxCell id="mS8Wi9VP1vNNWBXcDTI1-12" value="&lt;font style=&quot;font-size: 18px&quot;&gt;&lt;br&gt;&amp;nbsp; 人力资源&lt;br&gt;&amp;nbsp; 经理&lt;/font&gt;" style="html=1;dashed=0;whitespace=wrap;shape=mxgraph.dfd.externalEntity;sketch=1;shadow=1;" parent="WIyWlLk6GJQsqaUBKTNV-1" vertex="1">
          <mxGeometry x="460" y="560" width="100" height="100" as="geometry" />
        </mxCell>
        <mxCell id="mS8Wi9VP1vNNWBXcDTI1-13" value="2" style="autosize=1;part=1;resizable=0;strokeColor=inherit;fillColor=inherit;gradientColor=inherit;" parent="mS8Wi9VP1vNNWBXcDTI1-12" vertex="1">
          <mxGeometry width="20" height="20" relative="1" as="geometry">
            <mxPoint x="15" y="15" as="offset" />
          </mxGeometry>
        </mxCell>
        <mxCell id="mS8Wi9VP1vNNWBXcDTI1-14" value="&lt;font style=&quot;font-size: 18px&quot;&gt;&lt;br&gt;&amp;nbsp;销售与&lt;br&gt;&amp;nbsp;客户部门&lt;/font&gt;" style="html=1;dashed=0;whitespace=wrap;shape=mxgraph.dfd.externalEntity;shadow=1;sketch=1;fontSize=14;" parent="WIyWlLk6GJQsqaUBKTNV-1" vertex="1">
          <mxGeometry x="-70" y="410" width="100" height="100" as="geometry" />
        </mxCell>
        <mxCell id="mS8Wi9VP1vNNWBXcDTI1-15" value="7" style="autosize=1;part=1;resizable=0;strokeColor=inherit;fillColor=inherit;gradientColor=inherit;" parent="mS8Wi9VP1vNNWBXcDTI1-14" vertex="1">
          <mxGeometry width="20" height="20" relative="1" as="geometry">
            <mxPoint x="15" y="15" as="offset" />
          </mxGeometry>
        </mxCell>
        <mxCell id="mS8Wi9VP1vNNWBXcDTI1-16" style="edgeStyle=orthogonalEdgeStyle;rounded=0;sketch=1;orthogonalLoop=1;jettySize=auto;html=1;exitX=1;exitY=0.25;exitDx=0;exitDy=0;entryX=1;entryY=0.5;entryDx=0;entryDy=0;shadow=1;fontSize=14;" parent="mS8Wi9VP1vNNWBXcDTI1-14" source="mS8Wi9VP1vNNWBXcDTI1-15" target="mS8Wi9VP1vNNWBXcDTI1-15" edge="1">
          <mxGeometry relative="1" as="geometry" />
        </mxCell>
        <mxCell id="mS8Wi9VP1vNNWBXcDTI1-22" style="edgeStyle=orthogonalEdgeStyle;sketch=1;orthogonalLoop=1;jettySize=auto;html=1;shadow=1;strokeWidth=3;" parent="WIyWlLk6GJQsqaUBKTNV-1" source="mS8Wi9VP1vNNWBXcDTI1-17" target="mS8Wi9VP1vNNWBXcDTI1-21" edge="1">
          <mxGeometry relative="1" as="geometry" />
        </mxCell>
        <mxCell id="mS8Wi9VP1vNNWBXcDTI1-23" value="&lt;font style=&quot;font-size: 16px&quot;&gt;订单信息&lt;/font&gt;" style="edgeLabel;html=1;align=center;verticalAlign=middle;resizable=0;points=[];" parent="mS8Wi9VP1vNNWBXcDTI1-22" vertex="1" connectable="0">
          <mxGeometry x="-0.2096" relative="1" as="geometry">
            <mxPoint as="offset" />
          </mxGeometry>
        </mxCell>
        <mxCell id="mS8Wi9VP1vNNWBXcDTI1-25" style="edgeStyle=orthogonalEdgeStyle;sketch=1;orthogonalLoop=1;jettySize=auto;html=1;shadow=1;strokeWidth=3;" parent="WIyWlLk6GJQsqaUBKTNV-1" source="mS8Wi9VP1vNNWBXcDTI1-17" target="mS8Wi9VP1vNNWBXcDTI1-24" edge="1">
          <mxGeometry relative="1" as="geometry" />
        </mxCell>
        <mxCell id="mS8Wi9VP1vNNWBXcDTI1-26" value="&lt;font style=&quot;font-size: 16px&quot;&gt;客户信息&lt;/font&gt;" style="edgeLabel;html=1;align=center;verticalAlign=middle;resizable=0;points=[];" parent="mS8Wi9VP1vNNWBXcDTI1-25" vertex="1" connectable="0">
          <mxGeometry x="0.133" y="2" relative="1" as="geometry">
            <mxPoint as="offset" />
          </mxGeometry>
        </mxCell>
        <mxCell id="mS8Wi9VP1vNNWBXcDTI1-43" style="edgeStyle=orthogonalEdgeStyle;sketch=1;orthogonalLoop=1;jettySize=auto;html=1;shadow=1;strokeWidth=3;" parent="WIyWlLk6GJQsqaUBKTNV-1" source="mS8Wi9VP1vNNWBXcDTI1-17" target="mS8Wi9VP1vNNWBXcDTI1-41" edge="1">
          <mxGeometry relative="1" as="geometry" />
        </mxCell>
        <mxCell id="mS8Wi9VP1vNNWBXcDTI1-44" value="&lt;font style=&quot;font-size: 16px&quot;&gt;订单所需产品信息&lt;/font&gt;" style="edgeLabel;html=1;align=center;verticalAlign=middle;resizable=0;points=[];" parent="mS8Wi9VP1vNNWBXcDTI1-43" vertex="1" connectable="0">
          <mxGeometry x="-0.2767" relative="1" as="geometry">
            <mxPoint as="offset" />
          </mxGeometry>
        </mxCell>
        <mxCell id="mS8Wi9VP1vNNWBXcDTI1-17" value="&lt;div style=&quot;font-size: 16px&quot;&gt;&lt;b&gt;&lt;font style=&quot;font-size: 16px&quot;&gt;Process-1&lt;/font&gt;&lt;/b&gt;&lt;/div&gt;&lt;hr style=&quot;font-size: 16px&quot;&gt;&lt;b style=&quot;font-size: 16px&quot;&gt;&lt;font style=&quot;font-size: 16px&quot;&gt;分析并储存订单信息&lt;/font&gt;&lt;/b&gt;" style="html=1;dashed=0;whitespace=wrap;rounded=1;shadow=1;sketch=1;strokeColor=#000000;strokeWidth=3;fillColor=#B9E0A5;overflow=visible;" parent="WIyWlLk6GJQsqaUBKTNV-1" vertex="1">
          <mxGeometry x="200" y="55" width="160" height="75" as="geometry" />
        </mxCell>
        <mxCell id="mS8Wi9VP1vNNWBXcDTI1-35" style="edgeStyle=orthogonalEdgeStyle;sketch=1;orthogonalLoop=1;jettySize=auto;html=1;entryX=0.5;entryY=0;entryDx=0;entryDy=0;shadow=1;strokeWidth=3;" parent="WIyWlLk6GJQsqaUBKTNV-1" source="mS8Wi9VP1vNNWBXcDTI1-21" target="mS8Wi9VP1vNNWBXcDTI1-34" edge="1">
          <mxGeometry relative="1" as="geometry" />
        </mxCell>
        <mxCell id="mS8Wi9VP1vNNWBXcDTI1-36" value="&lt;font style=&quot;font-size: 16px&quot;&gt;订单信息&lt;/font&gt;" style="edgeLabel;html=1;align=center;verticalAlign=middle;resizable=0;points=[];" parent="mS8Wi9VP1vNNWBXcDTI1-35" vertex="1" connectable="0">
          <mxGeometry x="-0.2421" relative="1" as="geometry">
            <mxPoint as="offset" />
          </mxGeometry>
        </mxCell>
        <mxCell id="mS8Wi9VP1vNNWBXcDTI1-61" style="edgeStyle=orthogonalEdgeStyle;sketch=1;orthogonalLoop=1;jettySize=auto;html=1;entryX=0.5;entryY=1;entryDx=0;entryDy=0;shadow=1;strokeWidth=3;exitX=1;exitY=0.5;exitDx=0;exitDy=0;" parent="WIyWlLk6GJQsqaUBKTNV-1" source="mS8Wi9VP1vNNWBXcDTI1-21" target="mS8Wi9VP1vNNWBXcDTI1-58" edge="1">
          <mxGeometry relative="1" as="geometry" />
        </mxCell>
        <mxCell id="mS8Wi9VP1vNNWBXcDTI1-62" value="&lt;font style=&quot;font-size: 16px&quot;&gt;订单细则信息&lt;/font&gt;" style="edgeLabel;html=1;align=center;verticalAlign=middle;resizable=0;points=[];" parent="mS8Wi9VP1vNNWBXcDTI1-61" vertex="1" connectable="0">
          <mxGeometry x="0.1719" y="3" relative="1" as="geometry">
            <mxPoint as="offset" />
          </mxGeometry>
        </mxCell>
        <mxCell id="mS8Wi9VP1vNNWBXcDTI1-21" value="&lt;font size=&quot;1&quot;&gt;&lt;b style=&quot;font-size: 16px&quot;&gt;D2&amp;nbsp; &amp;nbsp; 订单信息文件&lt;/b&gt;&lt;/font&gt;" style="html=1;dashed=0;whitespace=wrap;shape=mxgraph.dfd.dataStoreID;align=left;spacingLeft=3;points=[[0,0],[0.5,0],[1,0],[0,0.5],[1,0.5],[0,1],[0.5,1],[1,1]];rounded=1;shadow=1;sketch=1;strokeWidth=3;fillColor=#99CCFF;" parent="WIyWlLk6GJQsqaUBKTNV-1" vertex="1">
          <mxGeometry x="320" y="210" width="140" height="40" as="geometry" />
        </mxCell>
        <mxCell id="mS8Wi9VP1vNNWBXcDTI1-28" style="edgeStyle=orthogonalEdgeStyle;sketch=1;orthogonalLoop=1;jettySize=auto;html=1;entryX=0.5;entryY=0;entryDx=0;entryDy=0;shadow=1;strokeWidth=3;" parent="WIyWlLk6GJQsqaUBKTNV-1" source="mS8Wi9VP1vNNWBXcDTI1-24" target="mS8Wi9VP1vNNWBXcDTI1-27" edge="1">
          <mxGeometry relative="1" as="geometry" />
        </mxCell>
        <mxCell id="mS8Wi9VP1vNNWBXcDTI1-29" value="&lt;font style=&quot;font-size: 16px&quot;&gt;新客户信息&lt;/font&gt;" style="edgeLabel;html=1;align=center;verticalAlign=middle;resizable=0;points=[];" parent="mS8Wi9VP1vNNWBXcDTI1-28" vertex="1" connectable="0">
          <mxGeometry x="-0.2933" y="3" relative="1" as="geometry">
            <mxPoint as="offset" />
          </mxGeometry>
        </mxCell>
        <mxCell id="mS8Wi9VP1vNNWBXcDTI1-24" value="&lt;b&gt;&lt;font style=&quot;font-size: 16px&quot;&gt;D1&amp;nbsp; &amp;nbsp; 客户信息文件&lt;/font&gt;&lt;/b&gt;" style="html=1;dashed=0;whitespace=wrap;shape=mxgraph.dfd.dataStoreID;align=left;spacingLeft=3;points=[[0,0],[0.5,0],[1,0],[0,0.5],[1,0.5],[0,1],[0.5,1],[1,1]];rounded=1;shadow=1;sketch=1;strokeWidth=3;fillColor=#99CCFF;" parent="WIyWlLk6GJQsqaUBKTNV-1" vertex="1">
          <mxGeometry x="90" y="210" width="160" height="40" as="geometry" />
        </mxCell>
        <mxCell id="mS8Wi9VP1vNNWBXcDTI1-30" style="edgeStyle=orthogonalEdgeStyle;sketch=1;orthogonalLoop=1;jettySize=auto;html=1;entryX=0;entryY=0;entryDx=100;entryDy=55;entryPerimeter=0;shadow=1;strokeWidth=3;" parent="WIyWlLk6GJQsqaUBKTNV-1" source="mS8Wi9VP1vNNWBXcDTI1-27" target="mS8Wi9VP1vNNWBXcDTI1-14" edge="1">
          <mxGeometry relative="1" as="geometry" />
        </mxCell>
        <mxCell id="mS8Wi9VP1vNNWBXcDTI1-31" value="&lt;font style=&quot;font-size: 16px&quot;&gt;客户信息&lt;/font&gt;" style="edgeLabel;html=1;align=center;verticalAlign=middle;resizable=0;points=[];" parent="mS8Wi9VP1vNNWBXcDTI1-30" vertex="1" connectable="0">
          <mxGeometry x="0.31" y="-1" relative="1" as="geometry">
            <mxPoint y="-36" as="offset" />
          </mxGeometry>
        </mxCell>
        <mxCell id="mS8Wi9VP1vNNWBXcDTI1-27" value="&lt;b style=&quot;font-size: 16px&quot;&gt;&lt;font style=&quot;font-size: 16px&quot;&gt;Process-2&lt;/font&gt;&lt;/b&gt;&lt;hr style=&quot;font-size: 16px&quot;&gt;&lt;b style=&quot;font-size: 16px&quot;&gt;&lt;font style=&quot;font-size: 16px&quot;&gt;通知客户信息&lt;/font&gt;&lt;/b&gt;" style="html=1;dashed=0;whitespace=wrap;rounded=1;shadow=1;sketch=1;strokeWidth=3;fillColor=#B9E0A5;align=center;" parent="WIyWlLk6GJQsqaUBKTNV-1" vertex="1">
          <mxGeometry x="105" y="320" width="130" height="80" as="geometry" />
        </mxCell>
        <mxCell id="mS8Wi9VP1vNNWBXcDTI1-37" style="edgeStyle=orthogonalEdgeStyle;sketch=1;orthogonalLoop=1;jettySize=auto;html=1;entryX=0;entryY=0;entryDx=100;entryDy=77.5;entryPerimeter=0;shadow=1;strokeWidth=3;" parent="WIyWlLk6GJQsqaUBKTNV-1" source="mS8Wi9VP1vNNWBXcDTI1-34" target="mS8Wi9VP1vNNWBXcDTI1-14" edge="1">
          <mxGeometry relative="1" as="geometry">
            <Array as="points">
              <mxPoint x="390" y="425" />
              <mxPoint x="270" y="425" />
              <mxPoint x="270" y="488" />
            </Array>
          </mxGeometry>
        </mxCell>
        <mxCell id="mS8Wi9VP1vNNWBXcDTI1-38" value="&lt;font style=&quot;font-size: 16px&quot;&gt;订单信息&lt;/font&gt;" style="edgeLabel;html=1;align=center;verticalAlign=middle;resizable=0;points=[];" parent="mS8Wi9VP1vNNWBXcDTI1-37" vertex="1" connectable="0">
          <mxGeometry x="0.3645" y="-4" relative="1" as="geometry">
            <mxPoint as="offset" />
          </mxGeometry>
        </mxCell>
        <mxCell id="mS8Wi9VP1vNNWBXcDTI1-34" value="&lt;div style=&quot;font-size: 16px&quot;&gt;&lt;b&gt;&lt;font style=&quot;font-size: 16px&quot;&gt;Process-3&lt;/font&gt;&lt;/b&gt;&lt;/div&gt;&lt;hr style=&quot;font-size: 16px&quot;&gt;&lt;b style=&quot;font-size: 16px&quot;&gt;&lt;font style=&quot;font-size: 16px&quot;&gt;通知订单信息&lt;/font&gt;&lt;/b&gt;" style="html=1;dashed=0;whitespace=wrap;rounded=1;shadow=1;sketch=1;strokeWidth=3;fillColor=#B9E0A5;align=center;" parent="WIyWlLk6GJQsqaUBKTNV-1" vertex="1">
          <mxGeometry x="325" y="325" width="130" height="80" as="geometry" />
        </mxCell>
        <mxCell id="mS8Wi9VP1vNNWBXcDTI1-46" style="edgeStyle=orthogonalEdgeStyle;sketch=1;orthogonalLoop=1;jettySize=auto;html=1;entryX=0.5;entryY=1;entryDx=0;entryDy=0;shadow=1;strokeWidth=3;" parent="WIyWlLk6GJQsqaUBKTNV-1" source="mS8Wi9VP1vNNWBXcDTI1-41" target="mS8Wi9VP1vNNWBXcDTI1-45" edge="1">
          <mxGeometry relative="1" as="geometry" />
        </mxCell>
        <mxCell id="mS8Wi9VP1vNNWBXcDTI1-54" value="订单所需产品信息" style="edgeLabel;html=1;align=center;verticalAlign=middle;resizable=0;points=[];" parent="mS8Wi9VP1vNNWBXcDTI1-46" vertex="1" connectable="0">
          <mxGeometry x="-0.272" relative="1" as="geometry">
            <mxPoint as="offset" />
          </mxGeometry>
        </mxCell>
        <mxCell id="mS8Wi9VP1vNNWBXcDTI1-41" value="&lt;b&gt;&lt;font style=&quot;font-size: 16px&quot;&gt;D3&amp;nbsp; &amp;nbsp; 未完订单所需产品文件&lt;/font&gt;&lt;/b&gt;" style="html=1;dashed=0;whitespace=wrap;shape=mxgraph.dfd.dataStoreID;align=left;spacingLeft=3;points=[[0,0],[0.5,0],[1,0],[0,0.5],[1,0.5],[0,1],[0.5,1],[1,1]];rounded=1;shadow=1;sketch=1;strokeWidth=3;fillColor=#99CCFF;" parent="WIyWlLk6GJQsqaUBKTNV-1" vertex="1">
          <mxGeometry x="167.5" y="-60" width="215" height="40" as="geometry" />
        </mxCell>
        <mxCell id="mS8Wi9VP1vNNWBXcDTI1-52" style="edgeStyle=orthogonalEdgeStyle;sketch=1;orthogonalLoop=1;jettySize=auto;html=1;entryX=0;entryY=0;entryDx=100;entryDy=55;entryPerimeter=0;shadow=1;strokeWidth=3;" parent="WIyWlLk6GJQsqaUBKTNV-1" source="mS8Wi9VP1vNNWBXcDTI1-45" target="mS8Wi9VP1vNNWBXcDTI1-4" edge="1">
          <mxGeometry relative="1" as="geometry" />
        </mxCell>
        <mxCell id="mS8Wi9VP1vNNWBXcDTI1-53" value="&lt;font style=&quot;font-size: 16px&quot;&gt;缺货信息&lt;/font&gt;" style="edgeLabel;html=1;align=center;verticalAlign=middle;resizable=0;points=[];" parent="mS8Wi9VP1vNNWBXcDTI1-52" vertex="1" connectable="0">
          <mxGeometry x="-0.172" y="2" relative="1" as="geometry">
            <mxPoint as="offset" />
          </mxGeometry>
        </mxCell>
        <mxCell id="mS8Wi9VP1vNNWBXcDTI1-45" value="&lt;b style=&quot;font-size: 16px&quot;&gt;&lt;font style=&quot;font-size: 16px&quot;&gt;Process-4&lt;/font&gt;&lt;/b&gt;&lt;hr style=&quot;font-size: 16px&quot;&gt;&lt;b style=&quot;font-size: 16px&quot;&gt;&lt;font style=&quot;font-size: 16px&quot;&gt;分析库存变动情况&lt;/font&gt;&lt;/b&gt;" style="html=1;dashed=0;whitespace=wrap;rounded=1;shadow=1;sketch=1;strokeWidth=3;fillColor=#B9E0A5;align=center;" parent="WIyWlLk6GJQsqaUBKTNV-1" vertex="1">
          <mxGeometry x="207.5" y="-190" width="135" height="70" as="geometry" />
        </mxCell>
        <mxCell id="mS8Wi9VP1vNNWBXcDTI1-49" style="edgeStyle=orthogonalEdgeStyle;sketch=1;orthogonalLoop=1;jettySize=auto;html=1;entryX=1;entryY=0.5;entryDx=0;entryDy=0;shadow=1;strokeWidth=3;exitX=0;exitY=0.5;exitDx=0;exitDy=0;" parent="WIyWlLk6GJQsqaUBKTNV-1" source="mS8Wi9VP1vNNWBXcDTI1-48" target="mS8Wi9VP1vNNWBXcDTI1-45" edge="1">
          <mxGeometry relative="1" as="geometry">
            <Array as="points">
              <mxPoint x="420" y="-155" />
              <mxPoint x="420" y="-155" />
            </Array>
          </mxGeometry>
        </mxCell>
        <mxCell id="mS8Wi9VP1vNNWBXcDTI1-50" value="&lt;font style=&quot;font-size: 16px&quot;&gt;当前库存信息&lt;/font&gt;" style="edgeLabel;html=1;align=center;verticalAlign=middle;resizable=0;points=[];" parent="mS8Wi9VP1vNNWBXcDTI1-49" vertex="1" connectable="0">
          <mxGeometry x="0.1783" relative="1" as="geometry">
            <mxPoint x="11" as="offset" />
          </mxGeometry>
        </mxCell>
        <mxCell id="mS8Wi9VP1vNNWBXcDTI1-59" style="edgeStyle=orthogonalEdgeStyle;sketch=1;orthogonalLoop=1;jettySize=auto;html=1;entryX=0.5;entryY=0;entryDx=0;entryDy=0;shadow=1;strokeWidth=3;" parent="WIyWlLk6GJQsqaUBKTNV-1" source="mS8Wi9VP1vNNWBXcDTI1-48" target="mS8Wi9VP1vNNWBXcDTI1-58" edge="1">
          <mxGeometry relative="1" as="geometry" />
        </mxCell>
        <mxCell id="mS8Wi9VP1vNNWBXcDTI1-60" value="&lt;font style=&quot;font-size: 16px&quot;&gt;库存信息&lt;/font&gt;" style="edgeLabel;html=1;align=center;verticalAlign=middle;resizable=0;points=[];" parent="mS8Wi9VP1vNNWBXcDTI1-59" vertex="1" connectable="0">
          <mxGeometry x="-0.1979" relative="1" as="geometry">
            <mxPoint as="offset" />
          </mxGeometry>
        </mxCell>
        <mxCell id="mS8Wi9VP1vNNWBXcDTI1-48" value="&lt;b&gt;&lt;font style=&quot;font-size: 16px&quot;&gt;D4&amp;nbsp; &amp;nbsp; 库存信息文件&lt;/font&gt;&lt;/b&gt;" style="html=1;dashed=0;whitespace=wrap;shape=mxgraph.dfd.dataStoreID;align=left;spacingLeft=3;points=[[0,0],[0.5,0],[1,0],[0,0.5],[1,0.5],[0,1],[0.5,1],[1,1]];rounded=1;shadow=1;sketch=1;strokeWidth=3;fillColor=#99CCFF;" parent="WIyWlLk6GJQsqaUBKTNV-1" vertex="1">
          <mxGeometry x="455" y="-175" width="160" height="40" as="geometry" />
        </mxCell>
        <mxCell id="mS8Wi9VP1vNNWBXcDTI1-55" value="&lt;font style=&quot;font-size: 16px&quot;&gt;&lt;b&gt;Process-5&lt;/b&gt;&lt;/font&gt;&lt;hr style=&quot;font-size: 16px&quot;&gt;&lt;font style=&quot;font-size: 16px&quot;&gt;&lt;b&gt;补货申请&lt;/b&gt;&lt;/font&gt;" style="html=1;dashed=0;whitespace=wrap;rounded=1;shadow=1;sketch=1;strokeWidth=3;align=center;fillColor=#B9E0A5;" parent="WIyWlLk6GJQsqaUBKTNV-1" vertex="1">
          <mxGeometry x="215" y="-360" width="120" height="70" as="geometry" />
        </mxCell>
        <mxCell id="mS8Wi9VP1vNNWBXcDTI1-58" value="&lt;b style=&quot;font-size: 16px&quot;&gt;&lt;font style=&quot;font-size: 16px&quot;&gt;Process-6&lt;/font&gt;&lt;/b&gt;&lt;hr style=&quot;font-size: 16px&quot;&gt;&lt;b style=&quot;font-size: 16px&quot;&gt;&lt;font style=&quot;font-size: 16px&quot;&gt;生成食品加工安排&lt;/font&gt;&lt;/b&gt;" style="html=1;dashed=0;whitespace=wrap;rounded=1;shadow=1;sketch=1;strokeWidth=3;fillColor=#B9E0A5;align=center;" parent="WIyWlLk6GJQsqaUBKTNV-1" vertex="1">
          <mxGeometry x="460" y="50" width="150" height="70" as="geometry" />
        </mxCell>
      </root>
    </mxGraphModel>
  </diagram>
</mxfile>
